<?xml version="1.0" encoding="utf-8"?>
<!-- Generator: Adobe Illustrator 22.0.1, SVG Export Plug-In . SVG Version: 6.00 Build 0)  -->
<svg version="1.1" xmlns="http://www.w3.org/2000/svg" xmlns:xlink="http://www.w3.org/1999/xlink" x="0px" y="0px"
	 viewBox="0 0 359.1 85.3" style="enable-background:new 0 0 359.1 85.3;" xml:space="preserve">
<style type="text/css">
	.st0{fill:#00867C;}
	.st1{fill:#77BD43;}
</style>
<g id="art">
	<g>
		<path class="st0" d="M3.3,42.6L3.3,42.6c0-8.8,6.9-16.1,16.4-16.1c5.9,0,9.4,2,12.6,4.9L29.8,34c-2.7-2.5-5.8-4.2-10.2-4.2
			c-7.2,0-12.6,5.6-12.6,12.7v0.1c0,7.1,5.4,12.8,12.6,12.8c4.4,0,7.4-1.6,10.5-4.5l2.4,2.3c-3.4,3.3-7.1,5.4-13,5.4
			C10.2,58.5,3.3,51.4,3.3,42.6z"/>
		<path class="st0" d="M36.1,42.6L36.1,42.6c0-8.6,6.7-16.1,16.6-16.1s16.5,7.4,16.5,15.9c0,0,0,0,0,0.1c0,8.5-6.7,16-16.6,16
			C42.8,58.5,36.1,51.1,36.1,42.6z M65.4,42.6L65.4,42.6c0-7.1-5.4-12.8-12.8-12.8s-12.7,5.6-12.7,12.7v0.1c0,7,5.4,12.8,12.8,12.8
			S65.4,49.6,65.4,42.6z"/>
		<path class="st0" d="M76.2,45V27h3.7v17.7c0,6.7,3.7,10.4,9.9,10.4c6,0,9.8-3.4,9.8-10.2V27h3.7v17.7c0,9-5.4,13.7-13.5,13.7
			C81.6,58.4,76.2,53.7,76.2,45z"/>
		<path class="st0" d="M112,27h3.4l20.4,24.8V27h3.6v30.9h-2.9l-20.9-25.3v25.3H112V27z"/>
		<path class="st0" d="M146.9,42.6L146.9,42.6c0-8.8,6.9-16.1,16.4-16.1c5.9,0,9.4,2,12.6,4.9l-2.5,2.6c-2.7-2.5-5.8-4.2-10.2-4.2
			c-7.2,0-12.6,5.6-12.6,12.7v0.1c0,7.1,5.4,12.8,12.6,12.8c4.4,0,7.4-1.6,10.5-4.5l2.4,2.3c-3.4,3.3-7.1,5.4-13,5.4
			C153.8,58.5,146.9,51.4,146.9,42.6z"/>
		<path class="st0" d="M182.3,27h3.7v30.9h-3.7V27z"/>
		<path class="st0" d="M195.1,27h3.7v27.7H217v3.2h-21.9V27z"/>
		<g>
			<path class="st0" d="M111.3,79l0.9-1c1.3,1.1,2.5,1.7,4.3,1.7c1.7,0,2.8-0.8,2.8-2v0c0-1.1-0.6-1.7-3.2-2.3
				c-2.9-0.6-4.2-1.5-4.2-3.4v0c0-1.9,1.7-3.2,4.1-3.2c1.8,0,3.1,0.5,4.4,1.5l-0.8,1c-1.2-0.9-2.3-1.3-3.6-1.3
				c-1.6,0-2.7,0.8-2.7,1.9v0c0,1.1,0.6,1.7,3.4,2.3c2.8,0.6,4.1,1.5,4.1,3.4v0c0,2-1.8,3.4-4.3,3.4C114.4,80.9,112.8,80.2,111.3,79
				z"/>
			<path class="st0" d="M124,71.9h1.4v1.5c0.6-0.9,1.4-1.7,3-1.7c1.5,0,2.5,0.8,3,1.7c0.7-1,1.6-1.7,3.2-1.7c2.1,0,3.4,1.4,3.4,3.5
				v5.4h-1.4v-5.1c0-1.7-0.9-2.6-2.4-2.6c-1.4,0-2.5,1-2.5,2.7v5.1h-1.4v-5.2c0-1.6-0.9-2.6-2.4-2.6c-1.5,0-2.6,1.2-2.6,2.8v5H124
				V71.9z"/>
			<path class="st0" d="M141,78.2L141,78.2c0-1.9,1.6-2.9,3.9-2.9c1.2,0,2,0.2,2.8,0.4v-0.3c0-1.6-1-2.4-2.7-2.4
				c-1.1,0-1.9,0.3-2.8,0.6l-0.4-1.1c1-0.4,2-0.7,3.3-0.7c1.3,0,2.3,0.3,3,1c0.6,0.6,1,1.5,1,2.6v5.4h-1.4v-1.3
				c-0.6,0.8-1.7,1.5-3.3,1.5C142.7,80.9,141,80,141,78.2z M147.7,77.5v-0.8c-0.7-0.2-1.6-0.4-2.7-0.4c-1.7,0-2.7,0.7-2.7,1.8v0
				c0,1.1,1.1,1.7,2.3,1.7C146.3,79.8,147.7,78.9,147.7,77.5z"/>
			<path class="st0" d="M152.7,71.9h1.4v2.3c0.7-1.5,2-2.5,3.8-2.4v1.4h-0.1c-2,0-3.7,1.4-3.7,4v3.5h-1.4V71.9z"/>
			<path class="st0" d="M161.4,78.4v-5.3h-1.3v-1.2h1.3v-2.6h1.4v2.6h2.9v1.2h-2.9v5.1c0,1.1,0.6,1.5,1.5,1.5c0.5,0,0.9-0.1,1.3-0.3
				v1.1c-0.5,0.2-1,0.4-1.7,0.4C162.5,80.8,161.4,80.2,161.4,78.4z"/>
			<path class="st0" d="M175.2,68.8h4.7c2.8,0,4.7,1.4,4.7,3.8v0c0,2.6-2.2,3.9-4.9,3.9h-3v4.2h-1.4V68.8z M179.7,75.3
				c2.1,0,3.4-1.1,3.4-2.6v0c0-1.7-1.3-2.6-3.3-2.6h-3.2v5.2H179.7z"/>
			<path class="st0" d="M187.5,71.9h1.4v2.3c0.7-1.5,2-2.5,3.8-2.4v1.4h-0.1c-2,0-3.7,1.4-3.7,4v3.5h-1.4V71.9z"/>
			<path class="st0" d="M195.3,68.6h1.6V70h-1.6V68.6z M195.4,71.9h1.4v8.8h-1.4V71.9z"/>
			<path class="st0" d="M199.6,71.9h1.5l3.1,7.3l3.1-7.3h1.5l-4,8.8h-1.2L199.6,71.9z"/>
			<path class="st0" d="M210.7,78.2L210.7,78.2c0-1.9,1.6-2.9,3.9-2.9c1.2,0,2,0.2,2.8,0.4v-0.3c0-1.6-1-2.4-2.7-2.4
				c-1.1,0-1.9,0.3-2.8,0.6l-0.4-1.1c1-0.4,2-0.7,3.3-0.7c1.3,0,2.3,0.3,3,1c0.6,0.6,1,1.5,1,2.6v5.4h-1.4v-1.3
				c-0.6,0.8-1.7,1.5-3.3,1.5C212.4,80.9,210.7,80,210.7,78.2z M217.5,77.5v-0.8c-0.7-0.2-1.6-0.4-2.7-0.4c-1.7,0-2.7,0.7-2.7,1.8v0
				c0,1.1,1.1,1.7,2.3,1.7C216.1,79.8,217.5,78.9,217.5,77.5z"/>
			<path class="st0" d="M222.7,78.4v-5.3h-1.3v-1.2h1.3v-2.6h1.4v2.6h2.9v1.2h-2.9v5.1c0,1.1,0.6,1.5,1.5,1.5c0.5,0,0.9-0.1,1.3-0.3
				v1.1c-0.5,0.2-1,0.4-1.7,0.4C223.8,80.8,222.7,80.2,222.7,78.4z"/>
			<path class="st0" d="M233.7,79.8c1.3,0,2.2-0.5,2.9-1.2l0.9,0.7c-0.9,1-2,1.6-3.8,1.6c-2.5,0-4.6-1.8-4.6-4.6
				c0-2.5,1.9-4.6,4.4-4.6c2.7,0,4.3,2.1,4.3,4.6c0,0.1,0,0.3,0,0.5h-7.3C230.7,78.7,232.1,79.8,233.7,79.8z M236.4,75.8
				c-0.2-1.6-1.1-3-2.9-3c-1.6,0-2.8,1.3-3,3H236.4z"/>
			<path class="st0" d="M247.3,68.8h1.3l7.9,9.5v-9.5h1.4v11.9h-1.1l-8.1-9.7v9.7h-1.4V68.8z"/>
			<path class="st0" d="M266,79.8c1.3,0,2.2-0.5,2.9-1.2l0.9,0.7c-0.9,1-2,1.6-3.8,1.6c-2.5,0-4.6-1.8-4.6-4.6
				c0-2.5,1.9-4.6,4.4-4.6c2.7,0,4.3,2.1,4.3,4.6c0,0.1,0,0.3,0,0.5h-7.3C263,78.7,264.4,79.8,266,79.8z M268.7,75.8
				c-0.2-1.6-1.1-3-2.9-3c-1.6,0-2.8,1.3-3,3H268.7z"/>
			<path class="st0" d="M273.5,78.4v-5.3h-1.3v-1.2h1.3v-2.6h1.4v2.6h2.9v1.2h-2.9v5.1c0,1.1,0.6,1.5,1.5,1.5c0.5,0,0.9-0.1,1.3-0.3
				v1.1c-0.5,0.2-1,0.4-1.7,0.4C274.6,80.8,273.5,80.2,273.5,78.4z"/>
			<path class="st0" d="M280.3,71.9h1.5l2.4,7l2.5-7.1h1.1l2.5,7.1l2.4-7h1.4l-3.2,8.8h-1.2l-2.5-6.9l-2.5,6.9h-1.2L280.3,71.9z"/>
			<path class="st0" d="M296.1,76.4L296.1,76.4c0-2.5,2-4.6,4.8-4.6c2.8,0,4.8,2.1,4.8,4.5v0c0,2.5-2,4.6-4.8,4.6
				C298.1,80.9,296.1,78.8,296.1,76.4z M304.3,76.4L304.3,76.4c0-1.9-1.5-3.5-3.4-3.5c-2,0-3.4,1.5-3.4,3.4v0c0,1.9,1.5,3.4,3.4,3.4
				C302.9,79.7,304.3,78.2,304.3,76.4z"/>
			<path class="st0" d="M308.9,71.9h1.4v2.3c0.7-1.5,2-2.5,3.8-2.4v1.4h-0.1c-2,0-3.7,1.4-3.7,4v3.5h-1.4V71.9z"/>
			<path class="st0" d="M316.7,68.3h1.4v8.6l5-4.9h1.7l-3.9,3.8l4,5h-1.6l-3.3-4.1l-1.9,1.8v2.3h-1.4V68.3z"/>
			<path class="st0" d="M326.8,79.6l0.7-0.9c1,0.7,2.1,1.1,3.2,1.1c1.1,0,1.9-0.5,1.9-1.4v0c0-0.9-1.1-1.2-2.3-1.5
				c-1.4-0.4-3-0.9-3-2.5v0c0-1.5,1.3-2.5,3.1-2.5c1.1,0,2.4,0.4,3.3,1l-0.6,1c-0.9-0.5-1.8-0.8-2.7-0.8c-1.1,0-1.8,0.5-1.8,1.3v0
				c0,0.8,1.1,1.2,2.4,1.5c1.4,0.4,3,0.9,3,2.5v0c0,1.7-1.4,2.6-3.3,2.6C329.3,80.9,327.9,80.4,326.8,79.6z"/>
		</g>
	</g>
	<g>
		<path class="st1" d="M222.8,27h14.5c4.1,0,7.3,1.1,9.4,3.1c1.7,1.7,2.7,4,2.7,6.7v0.1c0,5.1-3.2,8.1-7.7,9.4l8.8,11.7h-6.7
			l-8-10.8h-0.1h-7v10.8h-5.7V27z M236.8,42.4c4.1,0,6.7-2,6.7-5.2v-0.1c0-3.3-2.5-5.1-6.7-5.1h-8.3v10.4H236.8z"/>
		<path class="st1" d="M254,42.6L254,42.6c0-8.8,7-16.1,17-16.1c10,0,16.9,7.2,16.9,15.9v0.1c0,8.7-7,16-17,16
			C261,58.5,254,51.3,254,42.6z M282,42.6L282,42.6c0-6.1-4.6-11.1-11-11.1c-6.4,0-10.9,4.9-10.9,10.9v0.1c0,6,4.6,11,11,11
			C277.5,53.5,282,48.6,282,42.6z"/>
		<path class="st1" d="M292.9,42.6L292.9,42.6c0-8.9,6.9-16.1,16.7-16.1c6,0,9.6,2,12.7,4.8l-3.7,4c-2.6-2.3-5.4-3.8-9.1-3.8
			c-6.2,0-10.7,4.9-10.7,10.9v0.1c0,6,4.5,11,10.7,11c4,0,6.5-1.5,9.3-4l3.7,3.5c-3.4,3.4-7.1,5.5-13.2,5.5
			C300,58.5,292.9,51.4,292.9,42.6z"/>
		<path class="st1" d="M328,27h5.7v15.5L349.2,27h7l-13.5,13.3l14.1,17.6h-6.9L338.8,44l-5,4.9v9H328V27z"/>
		<g>
			<g>
				<circle class="st1" cx="52.6" cy="19.3" r="2.5"/>
				<circle class="st1" cx="52.6" cy="11.3" r="2"/>
				<circle class="st1" cx="52.6" cy="4.3" r="1.5"/>
			</g>
			<g>
				<circle class="st1" cx="36.5" cy="25.8" r="2.5"/>
				<circle class="st1" cx="30.7" cy="20.2" r="2"/>
				<circle class="st1" cx="25.7" cy="15.4" r="1.5"/>
			</g>
			<g>
				<circle class="st1" cx="61.3" cy="20.9" r="2.5"/>
				<circle class="st1" cx="64.4" cy="13.6" r="2"/>
				<circle class="st1" cx="67.1" cy="7.1" r="1.5"/>
			</g>
			<g>
				<circle class="st1" cx="43.9" cy="20.9" r="2.5"/>
				<circle class="st1" cx="40.8" cy="13.6" r="2"/>
				<circle class="st1" cx="38.1" cy="7.1" r="1.5"/>
			</g>
			<g>
				<circle class="st1" cx="68.8" cy="25.8" r="2.5"/>
				<circle class="st1" cx="74.5" cy="20.2" r="2"/>
				<circle class="st1" cx="79.5" cy="15.4" r="1.5"/>
			</g>
			<g>
				<circle class="st1" cx="52.6" cy="65.7" r="2.5"/>
				<circle class="st1" cx="52.6" cy="73.7" r="2"/>
				<circle class="st1" cx="52.6" cy="80.6" r="1.5"/>
			</g>
			<g>
				<circle class="st1" cx="36.5" cy="59.1" r="2.5"/>
				<circle class="st1" cx="30.7" cy="64.7" r="2"/>
				<circle class="st1" cx="25.7" cy="69.6" r="1.5"/>
			</g>
			<g>
				<circle class="st1" cx="61.3" cy="64" r="2.5"/>
				<circle class="st1" cx="64.4" cy="71.4" r="2"/>
				<circle class="st1" cx="67.1" cy="77.8" r="1.5"/>
			</g>
			<g>
				<circle class="st1" cx="43.9" cy="64" r="2.5"/>
				<circle class="st1" cx="40.8" cy="71.4" r="2"/>
				<circle class="st1" cx="38.1" cy="77.8" r="1.5"/>
			</g>
			<g>
				<circle class="st1" cx="68.8" cy="59.1" r="2.5"/>
				<circle class="st1" cx="74.5" cy="64.7" r="2"/>
				<circle class="st1" cx="79.5" cy="69.6" r="1.5"/>
			</g>
		</g>
	</g>
</g>
<g id="template">
</g>
</svg>
