<svg id="art" xmlns="http://www.w3.org/2000/svg" viewBox="0 0 118.02 64.7"><defs><style>.cls-1{fill:#00837b;}.cls-2{fill:#76bc21;}</style></defs><path class="cls-1" d="M13.68,72v-.18c0-17.7,13.89-32.35,33.22-32.35,11.91,0,19.05,4,25.62,9.92l-5.07,5.18C61.91,49.57,55.72,46,46.8,46,32.26,46,21.37,57.25,21.37,71.64v.18c0,14.48,11,25.82,25.43,25.82,9,0,14.92-3.3,21.21-9l4.88,4.56c-6.85,6.61-14.35,11-26.27,11C27.66,104.17,13.68,90,13.68,72Z" transform="translate(-13.68 -39.47)"/><path class="cls-2" d="M76,40.54h29.27c8.26,0,14.74,2.32,19,6.26a18.41,18.41,0,0,1,5.44,13.49v.18c0,10.28-6.47,16.44-15.67,18.94l17.74,23.68H118.09L102,81.29H87.5v21.8H76Zm28.43,31c8.26,0,13.51-4.11,13.51-10.46v-.18c0-6.7-5.06-10.36-13.6-10.36H87.5v21Z" transform="translate(-13.68 -39.47)"/></svg>